<svg width="707" height="306" viewBox="0 0 707 306" fill="none" xmlns="http://www.w3.org/2000/svg">
<path d="M80.5746 106.143H59.1371V67.6835H39.124V55.0417H100.588V67.6835H80.5746V106.143Z" fill="white"/>
<path d="M178.219 106.143H156.781V85.5243H129.86V106.143H108.422V55.0417H129.86V75.6958H156.781V55.0417H178.219V106.143Z" fill="white"/>
<path d="M251.149 106.143H189.614V55.0417H248.336V67.6835H211.051V75.6958H242.567V85.5243H211.051V93.5011H251.149V106.143Z" fill="white"/>
<path d="M314.429 106.143H277.785V55.0774H315.212C321.859 55.0774 327.331 55.386 331.628 56.0032C335.925 56.5967 339.237 57.5464 341.564 58.8521C343.89 60.134 345.469 61.7721 346.3 63.7663C347.131 65.7605 347.546 68.1464 347.546 70.924C347.475 73.1081 346.87 74.9243 345.73 76.3724C344.614 77.7968 343.297 78.8652 341.777 79.5774C340.282 80.2658 338.964 80.6101 337.825 80.6101C338.94 80.6101 340.246 80.8356 341.742 81.2867C343.237 81.714 344.686 82.3431 346.086 83.174C347.511 84.0049 348.686 85.0139 349.612 86.2009C350.561 87.3879 351.036 88.7411 351.036 90.2605C351.036 92.2547 350.799 94.0827 350.324 95.7445C349.873 97.4063 348.947 98.8782 347.546 100.16C346.169 101.442 344.128 102.534 341.421 103.436C338.715 104.315 335.166 104.991 330.774 105.466C326.406 105.917 320.957 106.143 314.429 106.143ZM313.218 76.23C316.352 76.23 318.773 76.0757 320.482 75.767C322.215 75.4584 323.414 74.9955 324.079 74.3782C324.744 73.7372 325.076 72.9301 325.076 71.9567C325.076 70.9596 324.744 70.1525 324.079 69.5352C323.414 68.8942 322.215 68.4313 320.482 68.1464C318.773 67.8378 316.352 67.6835 313.218 67.6835H299.223V76.23H313.218ZM313.218 93.5367C316.423 93.5367 319.022 93.4536 321.017 93.2874C323.011 93.1212 324.471 92.7414 325.397 92.1479C326.323 91.5544 326.785 90.5929 326.785 89.2634C326.785 87.934 326.323 86.9725 325.397 86.379C324.471 85.7617 323.011 85.3819 321.017 85.2394C319.022 85.0732 316.423 84.9902 313.218 84.9902H299.223V93.5367H313.218Z" fill="white"/>
<path d="M429.379 106.143H409.117C408.191 104.861 407.538 103.223 407.158 101.229C406.826 99.6854 406.327 98.1779 405.663 96.706C404.998 95.2104 403.847 93.9759 402.208 93.0025C400.594 92.0054 398.184 91.4713 394.979 91.4H381.056V106.143H359.618V55.0417H394.481C402.814 55.0417 409.532 55.6709 414.636 56.9291C419.764 58.1636 423.503 60.1222 425.854 62.8048C428.204 65.4637 429.379 68.9417 429.379 73.2387C429.379 76.8235 428.56 79.8385 426.922 82.2838C425.308 84.729 422.744 86.6638 419.23 88.0883C422.625 89.4889 424.821 91.1745 425.818 93.145C426.839 95.0917 427.468 97.2402 427.706 99.5905C427.943 101.68 428.501 103.864 429.379 106.143ZM381.056 78.7939L393.306 78.7583C396.724 78.7583 399.419 78.604 401.389 78.2954C403.36 77.9868 404.808 77.5713 405.734 77.049C406.683 76.503 407.289 75.9095 407.55 75.2685C407.811 74.6038 407.942 73.9272 407.942 73.2387C407.942 72.5502 407.811 71.8736 407.55 71.2089C407.289 70.5442 406.683 69.9507 405.734 69.4284C404.808 68.8824 403.36 68.455 401.389 68.1464C399.419 67.8378 396.724 67.6835 393.306 67.6835H381.056V78.7939Z" fill="white"/>
<path d="M499.496 106.143H437.961V55.0417H496.683V67.6835H459.399V75.6958H490.914V85.5243H459.399V93.5011H499.496V106.143Z" fill="white"/>
<path d="M588.166 106.143H566.444L561.636 97.7743H529.409L524.602 106.143H502.879L535.57 55.0774H555.476L588.166 106.143ZM554.408 85.1326L545.541 69.642L536.638 85.1326H554.408Z" fill="white"/>
<path d="M628.62 106.143H594.434V55.0417H628.62C642.603 55.0417 652.657 57.0003 658.782 60.9175C663.72 64.0749 666.533 68.3719 667.222 73.8085C667.53 76.1588 667.685 78.426 667.685 80.6101C667.685 82.7704 667.53 85.0376 667.222 87.4117C666.937 89.762 666.153 92.0529 664.871 94.2845C663.589 96.4923 661.548 98.4865 658.746 100.267C655.969 102.048 652.146 103.472 647.28 104.54C642.437 105.609 636.217 106.143 628.62 106.143ZM626.59 93.5011C637.487 93.5011 643.647 90.7472 645.072 85.2394C645.452 83.6963 645.642 82.1532 645.642 80.6101C645.642 79.0432 645.44 77.5001 645.036 75.9807C644.656 74.4376 643.825 73.0488 642.544 71.8143C641.285 70.556 639.386 69.559 636.846 68.823C634.306 68.0633 630.887 67.6835 626.59 67.6835H615.871V93.5011H626.59Z" fill="white"/>
<path d="M233.693 248.441H172.555L124.395 210.913L96.5619 229.912V248.441H49.4965V136.25H96.5619V188.163L172.086 136.25H233.693L153.322 191.133L233.693 248.441Z" fill="white"/>
<path d="M294.518 248.441H247.453V136.25H294.518V248.441Z" fill="white"/>
<path d="M485.986 248.441H430.007L366.602 172.526V248.441H319.536V136.25H375.515L438.92 211.773V136.25H485.986V248.441Z" fill="white"/>
<path d="M583.4 250.864C555.672 250.864 535.266 245.157 522.184 233.743C510.613 223.631 504.827 209.871 504.827 192.463C504.827 175.002 510.613 161.216 522.184 151.104C535.266 139.69 555.672 133.982 583.4 133.982C599.193 133.982 612.327 135.755 622.804 139.299C633.28 142.843 641.489 147.69 647.431 153.841C653.425 159.939 657.517 166.975 659.706 174.95H609.357C604.092 167.705 595.44 164.083 583.4 164.083C572.038 164.083 563.672 167.34 558.304 173.855C554.03 179.119 551.893 185.322 551.893 192.463C551.893 199.603 554.03 205.779 558.304 210.992C563.672 217.507 572.038 220.764 583.4 220.764C592.573 220.764 599.453 219.983 604.04 218.419C608.679 216.803 612.067 214.718 614.204 212.164H595.831V192.463H659.706V248.519H640.16L636.173 237.652C623.716 246.46 606.125 250.864 583.4 250.864Z" fill="white"/>
<rect x="8.08105" y="8.19067" width="690.646" height="289.525" rx="42.5" stroke="white" stroke-width="15"/>
</svg>
